<?xml version="1.0" standalone="no"?>
<!DOCTYPE svg PUBLIC "-//W3C//DTD SVG 20010904//EN"
 "http://www.w3.org/TR/2001/REC-SVG-20010904/DTD/svg10.dtd">
<svg version="1.0" xmlns="http://www.w3.org/2000/svg"
 width="220.000000pt" height="220.000000pt" viewBox="0 0 220.000000 220.000000"
 preserveAspectRatio="xMidYMid meet">
<metadata>
Created by potrace 1.11, written by Peter Selinger 2001-2013
</metadata>
<g transform="translate(0.000000,220.000000) scale(0.100000,-0.100000)"
fill="#000000" stroke="none">
<path d="M0 1100 l0 -1040 1100 0 1100 0 0 437 c0 340 -3 434 -12 425 -7 -7
-31 -12 -54 -12 -24 0 -53 -4 -66 -9 -13 -5 -103 -11 -200 -15 -128 -4 -189
-10 -220 -22 -24 -9 -72 -18 -108 -19 -36 -1 -78 -8 -93 -14 -16 -6 -48 -11
-72 -11 -24 0 -47 -4 -50 -10 -3 -5 -21 -10 -39 -10 -19 0 -50 -7 -70 -15 -66
-28 -128 -36 -196 -26 -74 10 -85 5 -94 -42 -3 -18 -20 -47 -36 -65 -19 -21
-30 -44 -30 -62 0 -16 -11 -42 -26 -59 -14 -17 -38 -57 -54 -88 -16 -32 -45
-73 -64 -92 -29 -28 -37 -31 -55 -22 -12 7 -21 19 -21 29 0 34 27 93 57 125
17 17 34 43 38 57 4 14 11 30 15 35 4 6 8 25 8 42 0 18 10 50 21 70 24 46 46
117 63 202 7 35 20 72 29 82 10 11 20 47 24 86 4 36 13 91 21 120 8 30 14 80
13 111 -1 31 6 78 15 104 12 35 14 53 6 74 -6 15 -10 34 -9 43 5 59 -3 93 -27
116 -27 25 -27 51 0 61 16 6 103 -23 111 -37 3 -4 1 -19 -5 -33 -7 -19 -5 -43
7 -89 26 -100 27 -187 4 -280 -40 -161 -58 -356 -38 -403 5 -11 20 -27 35 -36
24 -15 28 -15 52 1 27 19 83 37 144 46 21 4 49 13 62 22 13 8 24 14 26 12 2
-1 13 1 26 5 55 18 85 159 40 190 -12 9 -31 16 -41 16 -36 0 -31 31 11 72 50
48 57 68 42 113 -9 28 -23 41 -61 60 -27 14 -49 29 -49 35 0 5 16 24 35 42 42
40 57 98 32 126 -8 9 -18 29 -22 43 -9 38 -74 97 -110 101 -42 4 -42 39 1 53
17 6 37 15 45 21 8 6 37 19 65 28 94 31 127 92 70 130 -44 28 -126 113 -126
129 0 27 43 47 111 53 62 6 65 5 102 -29 34 -31 43 -55 38 -95 -1 -8 5 -24 14
-38 12 -19 24 -24 60 -24 24 0 55 4 68 9 17 7 31 5 48 -4 13 -8 35 -19 48 -25
23 -10 50 -38 51 -52 0 -3 -11 -20 -24 -35 -18 -22 -40 -33 -83 -42 -32 -7
-72 -16 -89 -22 -17 -5 -59 -9 -95 -9 -73 0 -109 -18 -109 -53 0 -30 27 -67
49 -67 23 0 41 -20 41 -46 0 -33 23 -51 61 -48 62 5 164 25 173 35 6 5 23 9
39 9 15 0 37 4 47 10 25 14 76 -9 119 -54 l34 -35 -21 -88 c-12 -48 -25 -121
-28 -160 -4 -42 -13 -78 -20 -84 -19 -15 -18 -63 1 -100 18 -33 16 -33 162 -2
84 17 108 12 122 -25 6 -18 10 154 10 541 l1 567 -1100 0 -1100 0 0 -1040z
m358 756 c15 -8 44 -16 65 -19 21 -3 48 -13 59 -23 29 -27 48 -75 37 -95 -6
-12 -4 -19 5 -22 10 -4 13 -25 11 -80 l-2 -75 58 -7 c58 -7 98 -32 84 -55 -3
-6 -23 -18 -43 -28 -44 -21 -133 -132 -129 -163 1 -12 -6 -26 -15 -32 -14 -9
-21 -6 -39 17 -21 26 -24 27 -88 20 -36 -3 -85 -13 -109 -21 -39 -13 -46 -13
-75 4 -53 31 -47 56 20 92 32 18 85 40 118 50 l60 19 -3 63 c-2 35 -9 80 -17
99 -7 19 -16 52 -20 72 -3 21 -14 43 -25 51 -11 7 -26 27 -35 43 -39 76 9 128
83 90z m270 -671 c3 -11 -14 -34 -42 -60 -25 -23 -46 -48 -46 -57 0 -8 -15
-28 -32 -44 -18 -17 -55 -57 -81 -90 -27 -32 -74 -85 -105 -118 l-56 -58 -51
6 c-86 10 -119 18 -137 34 -41 35 -4 92 59 92 31 0 43 6 65 33 14 19 52 47 83
63 32 16 64 38 71 50 8 11 34 35 59 53 32 23 45 39 45 57 0 43 28 59 100 57
53 -1 66 -4 68 -18z m1203 -473 c13 -11 38 -22 54 -26 17 -4 40 -17 53 -28 19
-19 22 -31 22 -101 0 -64 -4 -84 -21 -109 -21 -28 -21 -31 -4 -74 37 -98 -3
-133 -165 -141 -70 -4 -102 -10 -121 -23 -14 -11 -54 -22 -90 -26 -35 -3 -75
-12 -89 -19 -72 -35 -159 -19 -220 40 -35 35 -36 37 -34 102 2 42 -2 78 -11
98 -44 93 -57 173 -32 194 10 8 28 6 70 -6 52 -14 60 -14 104 2 26 9 68 20 93
22 30 4 56 15 78 34 33 29 70 36 165 29 17 -1 39 8 58 24 36 31 58 33 90 8z
m-1192 -412 c32 -30 33 -32 15 -51 -10 -11 -34 -29 -53 -41 -20 -12 -48 -32
-63 -46 -55 -50 -80 2 -28 58 17 18 30 36 30 40 0 11 50 70 59 70 3 0 22 -14
40 -30z"/>
<path d="M1453 574 c-15 -7 -40 -16 -54 -22 -32 -13 -59 -67 -64 -133 -4 -41
0 -57 22 -89 17 -27 33 -40 48 -40 12 0 42 -7 68 -16 l46 -15 50 40 c28 22 61
43 74 47 46 14 77 44 77 75 0 33 -54 135 -79 148 -27 14 -157 18 -188 5z"/>
<path d="M1577 1416 c-49 -18 -61 -28 -82 -76 -32 -71 0 -82 170 -63 l70 8 3
40 c2 26 -4 51 -18 73 -17 28 -25 32 -62 32 -24 -1 -60 -7 -81 -14z"/>
<path d="M1661 1169 c-18 -4 -43 -12 -55 -18 -11 -6 -37 -14 -56 -19 -27 -6
-40 -18 -59 -53 -28 -53 -30 -83 -6 -109 19 -21 74 -21 169 -1 26 6 52 9 57 6
4 -3 24 9 43 26 35 30 48 71 26 84 -5 3 -10 19 -10 35 0 16 -5 32 -10 35 -24
15 -67 21 -99 14z"/>
</g>
</svg>
